<svg width="12" height="13" viewBox="0 0 12 13" fill="none" xmlns="http://www.w3.org/2000/svg">
<path d="M6.34625 9.5H5.34071V8.6H6.34625V9.5ZM6.34625 8H5.34071V7.9979C5.34071 7.5029 5.34071 7.0754 5.56595 6.776C5.74118 6.57722 5.95922 6.41195 6.20715 6.29C6.3191 6.2258 6.42468 6.1649 6.5135 6.1016C6.70403 5.96961 6.84764 5.79094 6.9269 5.58729C7.00615 5.38365 7.01764 5.16378 6.95996 4.95441C6.86952 4.76089 6.70716 4.60129 6.50035 4.50261C6.29354 4.40394 6.05499 4.37224 5.82508 4.4129C5.59516 4.45355 5.388 4.56406 5.23866 4.72572C5.08932 4.88737 5.00696 5.09025 5.00554 5.30001H4C4 4.82262 4.21188 4.36478 4.58903 4.02722C4.96618 3.68965 5.4777 3.50001 6.01107 3.50001C6.3898 3.49899 6.76126 3.59308 7.08323 3.77159C7.40519 3.95009 7.66476 4.20585 7.83243 4.50981C7.98303 4.8195 8.03354 5.16081 7.97819 5.49492C7.92285 5.82903 7.76389 6.14254 7.51937 6.3998C7.36754 6.5504 7.1976 6.6848 7.01191 6.8009C6.84955 6.90114 6.70143 7.01871 6.57082 7.151C6.38621 7.40135 6.30665 7.70214 6.34625 8Z" fill="#70707C"/>
<rect x="0.5" y="1" width="11" height="11" rx="5.5" stroke="#70707C"/>
</svg>
