<svg width="56" height="57" viewBox="0 0 56 57" fill="none" xmlns="http://www.w3.org/2000/svg">
<path d="M55.1606 35.247C51.421 50.2471 36.2283 59.3759 21.2264 55.6354C6.23075 51.8958 -2.89805 36.7021 0.843198 21.7032C4.58116 6.70137 19.7739 -2.42811 34.7712 1.31149C49.772 5.05109 58.9002 20.2464 55.1602 35.2472L55.1605 35.247H55.1606Z" fill="#F7931A"/>
<path fill-rule="evenodd" clip-rule="evenodd" d="M40.3498 24.4844C40.9071 20.7582 38.0703 18.7553 34.1911 17.4191L35.4495 12.3716L32.377 11.606L31.1519 16.5206C30.3442 16.3191 29.5147 16.1293 28.6902 15.9411L29.9241 10.9941L26.8535 10.2285L25.5944 15.2743C24.926 15.1221 24.2694 14.9717 23.6325 14.8132L23.636 14.7974L19.3989 13.7393L18.5816 17.0209C18.5816 17.0209 20.8612 17.5435 20.8131 17.5756C22.0573 17.8862 22.2823 18.7098 22.245 19.3626L20.8115 25.1129C20.8972 25.1346 21.0083 25.1661 21.1309 25.2154L21.0417 25.1931C20.9659 25.1742 20.8871 25.1544 20.8062 25.1351L18.7969 33.1903C18.6448 33.5683 18.2589 34.1356 17.389 33.9202C17.4198 33.9648 15.1558 33.3629 15.1558 33.3629L13.6304 36.88L17.6288 37.8767C18.0666 37.9865 18.4992 38.0993 18.9274 38.2109L18.9276 38.211C19.2269 38.289 19.5241 38.3665 19.8194 38.442L18.5479 43.5473L21.6169 44.3129L22.876 39.2618C23.7145 39.4894 24.5281 39.6993 25.3246 39.8972L24.0698 44.9245L27.1424 45.6901L28.4137 40.5944C33.6531 41.5859 37.5926 41.1862 39.2508 36.4472C40.587 32.6318 39.1843 30.431 36.4279 28.9959C38.4356 28.5329 39.9477 27.2125 40.3509 24.4848L40.35 24.4841L40.3498 24.4844ZM33.3297 34.3279C32.4586 37.8285 26.9793 36.3813 24.4723 35.7191L24.472 35.7191C24.2466 35.6595 24.0453 35.6063 23.8734 35.5637L25.5607 28.8C25.7701 28.8523 26.0261 28.9097 26.3161 28.9748L26.3162 28.9748C28.9093 29.5568 34.2223 30.7491 33.3299 34.3279H33.3297ZM26.8364 25.8351C28.9265 26.3929 33.4859 27.6098 34.28 24.4282H34.2803C35.0911 21.1743 30.6601 20.1933 28.4959 19.7142C28.2525 19.6603 28.0377 19.6127 27.8623 19.569L26.3326 25.7032C26.477 25.7392 26.6465 25.7845 26.8364 25.8351Z" fill="white"/>
</svg>
