<svg width="127" height="34" viewBox="0 0 127 34" fill="none" xmlns="http://www.w3.org/2000/svg">
<g clip-path="url(#clip0_7288_7390)">
<path d="M27.307 9.01432C27.6317 8.68961 28.1729 8.73997 28.4086 9.13408C31.6623 14.5744 31.0369 21.617 26.4737 26.1802C21.9104 30.7434 14.8679 31.3688 9.42754 28.1152C9.03343 27.8795 8.98307 27.3382 9.30778 27.0135L12.0563 24.2651C12.338 23.9833 12.7656 23.8995 13.1411 24.061C16.3182 25.4276 20.0868 24.86 22.6201 22.3267C25.1534 19.7933 25.721 16.0248 24.3545 12.8476C24.1929 12.4721 24.2767 12.0446 24.5585 11.7628L27.307 9.01432Z" fill="black"/>
<path d="M24.2699 4.99693C24.664 5.23264 24.7144 5.77385 24.3897 6.09855L21.6416 8.84659C21.3599 9.12832 20.9324 9.2121 20.5569 9.05052C17.3799 7.68387 13.6116 8.25115 11.0786 10.7841C8.54563 13.3171 7.97835 17.0854 9.34239 20.265C9.50398 20.6405 9.4202 21.068 9.13846 21.3498L6.39049 24.0977C6.06576 24.4225 5.52451 24.3721 5.28885 23.9779C2.0375 18.5399 2.65997 11.4957 7.22246 6.9332C11.7876 2.36809 18.8297 1.74315 24.2699 4.99693Z" fill="black"/>
</g>
<path d="M50.0213 13.3559L50.1081 23.9395H46.5801L46.4933 13.3559H43.5953L43.5708 10.368H52.8948L52.9193 13.3559H50.0213Z" fill="black"/>
<path d="M54.1468 9H57.4048L57.4612 15.8758C57.9008 15.3358 58.3478 14.9758 58.8024 14.7958C59.2568 14.6038 59.79 14.5078 60.402 14.5078C61.566 14.5078 62.4447 14.8318 63.038 15.4798C63.6432 16.1158 63.9503 16.9797 63.9592 18.0717L64.0074 23.9395H60.7494L60.7111 19.2777C60.7073 18.8097 60.6682 18.4317 60.5938 18.1437C60.5195 17.8557 60.3976 17.6337 60.2284 17.4777C59.9383 17.2257 59.5893 17.0997 59.1813 17.0997C58.6293 17.0997 58.2046 17.2677 57.9074 17.6037C57.6221 17.9277 57.4819 18.3957 57.4869 19.0077L57.5274 23.9395H54.2694L54.1468 9Z" fill="black"/>
<path d="M72.9236 17.9817C72.8119 17.5257 72.5869 17.1597 72.2486 16.8837C71.9103 16.6077 71.5012 16.4697 71.0212 16.4697C70.5172 16.4697 70.1043 16.6017 69.7825 16.8657C69.4726 17.1297 69.2777 17.5017 69.1976 17.9817H72.9236ZM69.1231 19.8716C69.1346 21.2756 69.8004 21.9776 71.1204 21.9776C71.8284 21.9776 72.36 21.6896 72.7153 21.1136H75.8653C75.2466 23.2255 73.6653 24.2815 71.1213 24.2815C70.3413 24.2815 69.6264 24.1675 68.9765 23.9395C68.3265 23.6995 67.7658 23.3635 67.2942 22.9315C66.8347 22.4995 66.4764 21.9836 66.2195 21.3836C65.9626 20.7836 65.8311 20.1116 65.825 19.3677C65.8187 18.5997 65.933 17.9097 66.168 17.2977C66.4029 16.6737 66.7406 16.1458 67.181 15.7138C67.6215 15.2818 68.1528 14.9518 68.7749 14.7238C69.4089 14.4838 70.1219 14.3638 70.9139 14.3638C71.6939 14.3638 72.3969 14.4838 73.0229 14.7238C73.6488 14.9518 74.1795 15.2878 74.6152 15.7318C75.0508 16.1758 75.3853 16.7217 75.6186 17.3697C75.8518 18.0057 75.9717 18.7257 75.9783 19.5296L75.9811 19.8716H69.1231Z" fill="black"/>
<path d="M87.7166 10.368L87.7772 17.7477C87.7804 18.1437 87.7958 18.5517 87.8232 18.9717C87.8626 19.3797 87.9556 19.7516 88.1024 20.0876C88.2611 20.4236 88.5034 20.6996 88.8292 20.9156C89.1548 21.1196 89.6117 21.2216 90.1997 21.2216C90.7877 21.2216 91.2368 21.1196 91.5472 20.9156C91.8694 20.6996 92.1071 20.4236 92.2604 20.0876C92.4136 19.7516 92.5006 19.3797 92.5212 18.9717C92.5538 18.5517 92.5684 18.1437 92.5652 17.7477L92.5046 10.368H96.0146L96.0792 18.2337C96.0965 20.3456 95.6231 21.8876 94.6591 22.8595C93.7071 23.8315 92.2291 24.3175 90.2251 24.3175C88.2211 24.3175 86.7291 23.8315 85.7491 22.8595C84.7691 21.8876 84.2705 20.3456 84.2532 18.2337L84.1886 10.368H87.7166Z" fill="black"/>
<path d="M98.7893 14.7058H102.047L102.057 15.8758C102.496 15.3358 102.944 14.9758 103.398 14.7958C103.852 14.6038 104.386 14.5078 104.998 14.5078C105.646 14.5078 106.199 14.6158 106.656 14.8318C107.126 15.0358 107.524 15.3298 107.852 15.7138C108.118 16.0258 108.301 16.3738 108.4 16.7577C108.499 17.1417 108.551 17.5797 108.555 18.0717L108.603 23.9395H105.345L105.307 19.2777C105.303 18.8217 105.264 18.4557 105.19 18.1797C105.127 17.8917 105.012 17.6637 104.842 17.4957C104.697 17.3517 104.534 17.2497 104.354 17.1897C104.173 17.1297 103.981 17.0997 103.777 17.0997C103.225 17.0997 102.8 17.2677 102.503 17.6037C102.218 17.9277 102.078 18.3957 102.083 19.0077L102.123 23.9395H98.8651L98.7893 14.7058Z" fill="black"/>
<path d="M114 14.7058L114.076 23.9395H110.818L110.742 14.7058H114ZM110.497 11.1599C110.495 10.9079 110.541 10.6739 110.636 10.458C110.73 10.23 110.86 10.032 111.027 9.86397C111.193 9.69598 111.384 9.56398 111.599 9.46798C111.827 9.37199 112.066 9.32399 112.318 9.32399C112.57 9.32399 112.805 9.37199 113.021 9.46798C113.25 9.56398 113.449 9.69598 113.619 9.86397C113.788 10.032 113.922 10.23 114.02 10.458C114.117 10.6739 114.167 10.9079 114.169 11.1599C114.171 11.4119 114.125 11.6519 114.031 11.8799C113.937 12.0959 113.807 12.2879 113.64 12.4559C113.473 12.6239 113.276 12.7559 113.049 12.8519C112.834 12.9479 112.6 12.9959 112.348 12.9959C112.096 12.9959 111.856 12.9479 111.627 12.8519C111.41 12.7559 111.217 12.6239 111.048 12.4559C110.879 12.2879 110.745 12.0959 110.647 11.8799C110.549 11.6519 110.499 11.4119 110.497 11.1599Z" fill="black"/>
<path d="M119.885 17.4237L119.939 23.9395H116.681L116.627 17.4237H115.547L115.525 14.7058H116.605L116.582 11.9339H119.84L119.863 14.7058H121.717L121.739 17.4237H119.885Z" fill="black"/>
<defs>
<clipPath id="clip0_7288_7390">
<rect width="32.9967" height="32.9967" fill="white" transform="translate(0.291504)"/>
</clipPath>
</defs>
</svg>
