<svg width="34" height="33" viewBox="0 0 34 33" fill="none" xmlns="http://www.w3.org/2000/svg">
<g clip-path="url(#clip0_7286_7386)">
<path d="M27.3069 9.01432C27.6316 8.68961 28.1729 8.73997 28.4086 9.13408C31.6622 14.5744 31.0368 21.617 26.4736 26.1802C21.9104 30.7434 14.8678 31.3688 9.42748 28.1152C9.03337 27.8795 8.98301 27.3382 9.30772 27.0135L12.0562 24.2651C12.338 23.9833 12.7655 23.8995 13.141 24.061C16.3182 25.4276 20.0867 24.86 22.6201 22.3267C25.1534 19.7933 25.721 16.0248 24.3544 12.8476C24.1929 12.4721 24.2767 12.0446 24.5584 11.7628L27.3069 9.01432Z" fill="white"/>
<path d="M24.27 4.99693C24.6641 5.23264 24.7144 5.77385 24.3897 6.09855L21.6417 8.84659C21.36 9.12832 20.9324 9.2121 20.557 9.05052C17.3799 7.68387 13.6117 8.25115 11.0787 10.7841C8.54569 13.3171 7.97841 17.0854 9.34245 20.265C9.50404 20.6405 9.42026 21.068 9.13852 21.3498L6.39055 24.0977C6.06582 24.4225 5.52457 24.3721 5.28891 23.9779C2.03756 18.5399 2.66003 11.4957 7.22252 6.9332C11.7876 2.36809 18.8298 1.74315 24.27 4.99693Z" fill="white"/>
</g>
<defs>
<clipPath id="clip0_7286_7386">
<rect width="32.9967" height="32.9967" fill="white" transform="translate(0.291504)"/>
</clipPath>
</defs>
</svg>
