<svg width="34" height="33" viewBox="0 0 34 33" fill="none" xmlns="http://www.w3.org/2000/svg">
<g clip-path="url(#clip0_7288_7391)">
<path d="M27.307 9.01432C27.6317 8.68961 28.1729 8.73997 28.4086 9.13408C31.6623 14.5744 31.0369 21.617 26.4737 26.1802C21.9104 30.7434 14.8679 31.3688 9.42754 28.1152C9.03343 27.8795 8.98307 27.3382 9.30778 27.0135L12.0563 24.2651C12.338 23.9833 12.7656 23.8995 13.1411 24.061C16.3182 25.4276 20.0868 24.86 22.6201 22.3267C25.1534 19.7933 25.721 16.0248 24.3545 12.8476C24.1929 12.4721 24.2767 12.0446 24.5585 11.7628L27.307 9.01432Z" fill="black"/>
<path d="M24.2699 4.99693C24.664 5.23264 24.7144 5.77385 24.3897 6.09855L21.6416 8.84659C21.3599 9.12832 20.9324 9.2121 20.5569 9.05052C17.3799 7.68387 13.6116 8.25115 11.0786 10.7841C8.54563 13.3171 7.97835 17.0854 9.34239 20.265C9.50398 20.6405 9.4202 21.068 9.13846 21.3498L6.39049 24.0977C6.06576 24.4225 5.52451 24.3721 5.28885 23.9779C2.0375 18.5399 2.65997 11.4957 7.22246 6.9332C11.7876 2.36809 18.8297 1.74315 24.2699 4.99693Z" fill="black"/>
</g>
<defs>
<clipPath id="clip0_7288_7391">
<rect width="32.9967" height="32.9967" fill="white" transform="translate(0.291504)"/>
</clipPath>
</defs>
</svg>
