<svg width="1207" height="376" viewBox="0 0 1207 376" fill="none" xmlns="http://www.w3.org/2000/svg">
<g opacity="0.2" clip-path="url(#clip0_4696_2895)">
<path fill-rule="evenodd" clip-rule="evenodd" d="M440.862 -0.49707C420.785 1.71558 390.939 7.64027 366.652 18.2354C354.51 23.5324 343.723 30.0116 336.244 37.807C328.756 45.6121 324.565 54.7608 325.696 65.3525C327.106 78.5508 335.844 90.4509 348.503 101.618C361.168 112.791 377.835 123.296 395.239 133.688C399.113 136.001 403.024 138.309 406.936 140.617L406.937 140.618C416.71 146.385 426.491 152.157 435.734 158.034C426.212 153.378 416.394 148.8 406.597 144.232L406.588 144.227L406.588 144.227C401.955 142.067 397.327 139.909 392.737 137.746C372.047 127.995 352.141 118.146 336.009 107.524C319.871 96.8989 307.597 85.5561 302.057 72.8335C297.636 62.683 298.76 53.7161 303.573 45.8589C308.391 37.9919 316.9 31.2546 327.201 25.6072C347.801 14.3131 375.453 7.43931 394.641 4.57317L394.217 3.63292C374.968 6.50809 347.21 13.4034 326.501 24.7574C316.147 30.4339 307.527 37.2404 302.625 45.2432C297.717 53.2559 296.531 62.4851 301.094 72.9631C306.782 86.0262 319.333 97.562 335.557 108.244C351.787 118.93 371.78 128.818 392.469 138.569C397.066 140.735 401.696 142.894 406.329 145.055L406.334 145.057L406.357 145.068C418.409 150.688 430.473 156.314 441.974 162.077C443.044 162.785 444.105 163.495 445.156 164.206C432.388 159.111 419.178 154.153 406.003 149.209L406.001 149.208L405.991 149.204L405.989 149.203L405.987 149.203C400.678 147.21 395.374 145.22 390.108 143.223C366.36 134.221 343.358 125.095 323.858 115.072C304.357 105.05 288.432 94.1685 278.757 81.6676C263.32 61.7211 271.546 45.7252 288.376 33.789C305.186 21.8676 330.445 14.1044 348.591 10.6104L347.914 9.79239C329.7 13.2993 304.332 21.091 287.426 33.0811C270.54 45.0564 261.962 61.3287 277.813 81.8097C287.693 94.5761 303.899 105.614 323.513 115.696C343.129 125.777 366.229 134.939 389.977 143.942C395.257 145.943 400.57 147.937 405.884 149.932L405.902 149.938C420.068 155.255 434.247 160.576 447.87 166.066C449.294 167.053 450.696 168.044 452.074 169.039C436.944 164.115 421.344 159.37 405.788 154.638L405.788 154.638L405.787 154.637L405.784 154.636C399.85 152.832 393.923 151.029 388.031 149.218C361.486 141.063 335.64 132.759 312.982 123.445C290.328 114.132 270.914 103.832 257.189 91.6911C235.27 72.3035 238.295 56.0992 251.134 43.6793C263.97 31.262 286.559 22.6957 303.461 18.6132L302.606 17.9344C285.625 22.0357 262.924 30.6396 250.007 43.1354C237.092 55.6284 233.902 72.08 256.25 91.8476C270.192 104.179 289.863 114.598 312.65 123.966C335.433 133.331 361.384 141.667 387.932 149.823C393.836 151.636 399.769 153.441 405.705 155.247L405.708 155.248L405.721 155.252C421.866 160.163 438.027 165.079 453.658 170.192C455.21 171.333 456.73 172.479 458.213 173.631C441.113 169.106 423.567 164.791 406.071 160.488L406.065 160.486C399.578 158.891 393.099 157.297 386.651 155.695C328.511 141.249 273.015 126.122 237.725 102.836C209.541 84.2396 207.308 68.0008 216.03 55.2284C224.754 42.451 244.426 33.1767 259.899 28.5516L258.92 28.0022C243.358 32.6543 223.573 41.9774 214.789 54.8416C206.002 67.7108 208.21 84.1577 236.788 103.015C272.45 126.546 328.444 141.777 386.518 156.207C392.986 157.814 399.479 159.411 405.975 161.009L405.976 161.009C423.891 165.415 441.822 169.826 459.272 174.46C460.851 175.706 462.388 176.959 463.876 178.22C445.154 174.233 426.049 170.482 407.001 166.742L407 166.742L406.999 166.741C400.022 165.371 393.051 164.002 386.11 162.624C323.611 150.214 263.445 137.027 220.719 115.026C186.573 97.4433 179.082 81.3486 183.598 68.3579C188.118 55.3592 204.662 45.4793 218.534 40.3639L217.467 39.9289C203.492 45.0823 186.844 55.0232 182.293 68.1138C177.738 81.2123 185.296 97.4751 219.783 115.234C262.85 137.411 323.438 150.67 385.91 163.075C392.859 164.455 399.831 165.824 406.805 167.193L406.806 167.194C426.217 171.006 445.647 174.821 464.648 178.879C466.2 180.212 467.697 181.554 469.135 182.906C449.162 179.559 428.881 176.461 408.656 173.371L408.656 173.371L408.652 173.37C401.269 172.242 393.893 171.115 386.542 169.978C320.363 159.737 256.191 148.638 206.496 128.174C127.063 95.4628 155.696 65.075 179.967 53.9652L178.834 53.6325C154.396 64.8185 125.489 95.4437 205.564 128.419C255.561 149.008 320.085 160.155 386.264 170.395C393.623 171.534 401.003 172.661 408.385 173.789L408.385 173.789C428.933 176.929 449.505 180.072 469.731 183.471C471.214 184.885 472.631 186.31 473.976 187.747C453.173 185.112 432.147 182.729 411.176 180.352C403.465 179.478 395.761 178.605 388.079 177.72C318.94 169.76 251.472 160.874 195.354 142.178C105.622 112.283 124.282 81.0891 144.769 69.2469L143.582 69.0098C122.878 80.9774 104.16 112.395 194.429 142.468C250.811 161.252 318.571 170.168 387.727 178.13C395.415 179.015 403.121 179.889 410.829 180.763L410.83 180.763C432.104 183.174 453.405 185.589 474.456 188.263C475.837 189.761 477.141 191.272 478.359 192.799C457.201 190.921 435.909 189.287 414.669 187.658L414.652 187.656L414.634 187.655L414.617 187.654L414.6 187.652L414.587 187.651L414.574 187.65L414.561 187.649L414.548 187.648L414.535 187.647C406.627 187.04 398.726 186.434 390.843 185.816C319.496 180.222 249.478 173.649 187.554 156.932C88.5085 130.193 96.9713 98.5299 113.465 86.0856L112.236 85.9428C95.5111 98.5613 87.1667 130.422 186.643 157.277C248.795 174.056 319.054 180.645 390.424 186.241C398.358 186.863 406.305 187.473 414.257 188.083L414.257 188.083L414.259 188.083L414.263 188.083C435.791 189.735 457.349 191.389 478.753 193.296C480.002 194.886 481.158 196.493 482.214 198.118C461.237 197.012 440.213 196.131 419.236 195.252C411.129 194.912 403.029 194.573 394.941 194.221C322.167 191.054 250.37 186.869 183.322 172.318C76.0525 149.037 74.205 117.249 86.5421 104.338L85.2812 104.294C72.7341 117.424 74.8352 149.376 182.433 172.728C249.677 187.321 321.67 191.514 394.471 194.682C402.555 195.034 410.649 195.373 418.748 195.712L418.772 195.713H418.772C440.027 196.604 461.313 197.496 482.537 198.621C482.675 198.837 482.81 199.054 482.944 199.271C483.821 200.69 484.658 202.194 485.449 203.776C465.258 203.42 445.091 203.258 424.965 203.097C416.792 203.032 408.625 202.966 400.467 202.888C327.061 202.183 254.278 200.432 182.842 188.209C68.5308 168.649 56.3737 137.082 64.4333 123.845L63.1559 123.91C54.9385 137.407 67.4421 169.099 181.99 188.699C253.591 200.95 326.535 202.702 399.967 203.407C408.129 203.485 416.297 203.551 424.47 203.616H424.47H424.47C444.86 203.78 465.279 203.944 485.713 204.309C486.572 206.07 487.375 207.925 488.113 209.865C469.327 210.191 450.612 210.672 431.933 211.152H431.932L431.928 211.152L431.923 211.152L431.919 211.152L431.915 211.152L431.911 211.152L431.906 211.152C423.765 211.362 415.631 211.571 407.5 211.767C334.265 213.531 261.296 214.235 186.258 204.476C126.229 196.669 90.6087 185.016 70.4649 173.633C50.311 162.244 45.6695 151.138 47.5198 144.436L46.2499 144.628C44.3546 151.494 49.116 162.693 69.3442 174.124C89.5826 185.56 125.324 197.242 185.466 205.064C260.643 214.841 333.741 214.133 406.999 212.368C415.131 212.172 423.264 211.963 431.402 211.754L431.407 211.754L431.412 211.754L431.416 211.754L431.421 211.754L431.426 211.754L431.431 211.753L431.436 211.753H431.436H431.437L431.438 211.753C450.364 211.267 469.316 210.78 488.334 210.454C489.049 212.386 489.699 214.399 490.276 216.486C473.511 217.374 456.838 218.374 440.192 219.372C432.155 219.854 424.125 220.336 416.093 220.804C343.833 225.019 271.48 228.171 193.665 220.985C131.414 215.236 92.1863 204.84 68.4416 194.192C44.6822 183.538 36.4577 172.646 36.1183 165.927L34.8961 166.267C35.2447 173.167 43.627 184.142 67.4516 194.826C91.2909 205.517 130.625 215.932 192.97 221.689C270.901 228.886 343.358 225.728 415.639 221.512C423.659 221.044 431.677 220.563 439.699 220.082L439.701 220.082L439.741 220.08C456.603 219.068 473.486 218.056 490.459 217.16C491.028 219.29 491.521 221.494 491.928 223.764C477.818 225.036 463.792 226.377 449.786 227.717L449.785 227.717L449.785 227.717L449.752 227.72L449.745 227.721C441.922 228.469 434.105 229.216 426.284 229.95C355.788 236.569 284.849 242.135 205.113 237.602C141.323 233.975 98.9199 224.953 71.8337 215.158C44.7284 205.356 33.0058 194.796 30.4845 188.13L29.3728 188.635C31.9659 195.49 43.872 206.12 71.0311 215.941C98.2094 225.77 140.707 234.805 204.574 238.437C284.409 242.976 355.433 237.402 425.945 230.781C433.755 230.048 441.557 229.302 449.365 228.555L449.369 228.555L449.374 228.554L449.378 228.554L449.383 228.553L449.44 228.548L449.445 228.548L449.449 228.547L449.45 228.547L449.451 228.547C463.617 227.192 477.8 225.836 492.066 224.552C492.47 226.93 492.781 229.377 492.989 231.885C482.196 233.287 471.458 234.721 460.732 236.154L460.725 236.155L460.718 236.155L460.711 236.156L460.704 236.157L460.697 236.158L460.69 236.159L460.682 236.16L460.675 236.161L460.668 236.162L460.661 236.163C453.135 237.168 445.616 238.173 438.086 239.164C370.13 248.115 301.384 256.034 220.603 254.204C155.978 252.739 110.866 245.19 80.7358 236.356C50.583 227.516 35.4868 217.406 30.8123 210.863L29.8894 211.516C34.6995 218.249 49.9951 228.417 80.1927 237.271C110.413 246.13 155.61 253.688 220.304 255.154C301.172 256.987 369.987 249.058 437.959 240.106C445.514 239.11 453.059 238.103 460.608 237.094L460.608 237.094L460.609 237.094L460.609 237.094L460.61 237.094L460.611 237.094L460.612 237.094L460.614 237.094C471.405 235.652 482.205 234.21 493.06 232.801C493.257 235.515 493.334 238.298 493.278 241.137C486.524 242.307 479.79 243.485 473.061 244.662L473.061 244.662L473.053 244.664L473.046 244.665L473.016 244.67C465.851 245.924 458.691 247.177 451.518 248.417C386.845 259.602 321.051 269.787 240.114 270.68C175.364 271.394 128.042 265.401 95.2012 257.628C62.3353 249.848 44.0309 240.299 37.2539 233.949L36.5702 234.679C43.5441 241.213 62.0616 250.811 94.9708 258.601C127.905 266.397 175.311 272.395 240.125 271.68C321.144 270.786 387.002 260.59 451.689 249.403C458.879 248.159 466.054 246.904 473.234 245.648L473.235 245.647L473.24 245.646C479.902 244.481 486.567 243.314 493.252 242.156C493.153 245.363 492.885 248.64 492.428 251.968C490.555 252.382 488.683 252.797 486.811 253.211L486.81 253.212L486.81 253.212L486.804 253.213L486.779 253.218L486.723 253.231L486.716 253.232L486.708 253.234L486.7 253.236L486.692 253.238L486.684 253.239L486.676 253.241L486.668 253.243L486.66 253.245L486.653 253.246L486.645 253.248L486.637 253.25L486.629 253.252L486.621 253.253L486.613 253.255C479.947 254.731 473.285 256.206 466.606 257.67C405.926 270.965 343.807 283.304 263.606 286.91C199.445 289.796 150.435 285.425 115.248 278.798C80.0347 272.166 58.7267 263.285 49.9211 257.197L49.4411 257.898C58.5021 264.162 80.0426 273.086 115.308 279.729C150.601 286.376 199.7 290.749 263.929 287.86C344.215 284.25 406.397 271.897 467.091 258.599C473.837 257.121 480.565 255.631 487.296 254.14L487.298 254.14C488.957 253.773 490.616 253.405 492.276 253.038C491.686 257.006 490.828 261.045 489.674 265.126C487.571 265.702 485.467 266.277 483.361 266.851C427.338 282.111 369.577 296.468 290.996 302.748C228.13 307.772 177.973 305.072 140.831 299.664C103.662 294.252 79.5876 286.138 68.8473 280.378L68.4701 280.984C79.5163 286.908 103.848 295.062 141.09 300.485C178.359 305.911 228.618 308.611 291.561 303.581C370.239 297.293 428.066 282.918 484.103 267.654C485.856 267.176 487.608 266.697 489.358 266.218C487.948 270.992 486.13 275.818 483.856 280.65C483.64 281.108 483.42 281.566 483.197 282.024C437.883 296.756 389.019 310.23 322.129 318.039C261.25 325.146 210.5 324.145 171.813 320.016C133.102 315.884 106.526 308.625 93.961 303.254L93.5954 303.76C106.498 309.276 133.354 316.572 172.171 320.716C211.012 324.862 261.885 325.858 322.855 318.74C389.114 311.005 437.707 297.719 482.629 283.167C478.854 290.664 473.961 298.16 467.772 305.478C436.869 316.114 401.702 325.619 356.795 332.646C298.573 341.758 247.789 342.466 207.985 339.66C168.161 336.852 139.372 330.529 125.111 325.603L124.706 326.035C139.315 331.081 168.399 337.438 208.37 340.256C248.361 343.076 299.293 342.357 357.625 333.229C401.607 326.346 436.26 317.091 466.699 306.731C447.204 329.181 415.353 349.861 365.985 363.657L366.254 364.62C416.711 350.52 449.02 329.219 468.563 306.093C487.853 299.462 505.475 292.392 522.751 285.213C524.589 284.449 526.424 283.683 528.256 282.917C523.312 314.722 499.038 347.335 438.2 368.308L438.78 369.211C500.35 347.985 524.734 314.815 529.423 282.429C532.178 281.276 534.928 280.121 537.68 278.966L537.68 278.966L537.681 278.965L537.683 278.965L537.685 278.964L537.694 278.96C547.563 274.817 557.445 270.668 567.589 266.576C569.444 271.612 570.895 276.739 571.85 281.907C577.797 314.067 564.571 347.83 510.27 370.995L511.109 371.765C565.61 348.514 578.976 314.575 572.981 282.148C571.987 276.774 570.461 271.442 568.503 266.208C577.575 262.557 586.862 258.953 596.544 255.44C603.353 263.64 609.286 272.246 613.806 281.02C630.197 312.834 628.007 346.855 581.554 371.71L582.581 372.325C629.235 347.364 631.469 313.16 614.974 281.143C610.378 272.222 604.328 263.471 597.38 255.137C604.655 252.508 612.153 249.93 619.951 247.422C632.668 257.333 644.447 268.076 653.962 279.176C680.636 310.294 689.507 344.205 651.404 370.476L652.561 370.945C690.85 344.545 681.929 310.456 655.133 279.197C645.531 267.995 633.631 257.153 620.782 247.156C626.953 245.181 633.312 243.25 639.896 241.372C658.615 252.024 676.766 263.94 692.014 276.443C728.69 306.515 748.533 339.949 719.19 367.351L720.434 367.684C749.932 340.138 729.961 306.542 693.17 276.375C677.844 263.808 659.592 251.831 640.765 241.125C646.159 239.595 651.705 238.101 657.422 236.647C681.847 247.362 706.411 259.714 727.679 272.899C773.961 301.59 804.568 334.182 784.301 362.417L785.603 362.625C805.981 334.236 775.188 301.504 728.81 272.753C707.49 259.536 682.863 247.152 658.367 236.407C663.163 235.196 668.079 234.013 673.128 232.861C702.761 243.147 733.46 255.35 760.708 268.63C816.091 295.62 857.136 327.014 846.165 355.775L847.5 355.864C858.532 326.946 817.264 295.435 761.809 268.41C734.552 255.127 703.848 242.917 674.193 232.62C678.281 231.694 682.68 230.742 687.369 229.767C721.599 239.259 757.934 250.844 790.881 263.733C854.755 288.721 905.799 318.572 904.242 347.547L905.587 347.518C907.152 318.391 855.871 288.446 791.946 263.439C759.057 250.572 722.795 239.003 688.602 229.512C692.319 228.745 696.213 227.965 700.274 227.176C738.457 235.605 779.805 246.204 818.008 258.31C889.673 281.019 950.162 308.999 958.04 337.872L959.371 337.721C951.453 308.705 890.727 280.654 819.029 257.935C780.979 245.877 739.809 235.312 701.737 226.892C705.025 226.257 708.42 225.616 711.916 224.97C753.385 232.138 799.041 241.463 841.936 252.467C920.605 272.647 989.88 298.447 1007.11 326.903L1008.4 326.622C991.09 298.037 921.588 272.185 842.902 252.001C800.294 241.071 754.963 231.795 713.701 224.642C716.522 224.125 719.406 223.605 722.352 223.083C766.428 228.844 815.623 236.673 862.552 246.317C947.36 263.746 1024.66 287.082 1051.06 314.809L1052.28 314.388C1025.77 286.547 948.256 263.175 863.441 245.745C816.999 236.201 768.338 228.433 724.601 222.686C726.906 222.281 729.247 221.875 731.623 221.469C777.621 225.722 829.545 231.892 879.776 239.975C969.792 254.459 1054.28 275.074 1089.56 301.769L1090.65 301.194C1055.24 274.403 970.57 253.765 880.554 239.28C831.106 231.324 780.019 225.219 734.547 220.971C736.264 220.68 737.999 220.389 739.751 220.098C786.992 222.781 840.816 227.181 893.573 233.553C987.809 244.935 1078.56 262.6 1122.34 287.969L1123.24 287.234C1079.33 261.785 988.415 244.106 894.182 232.724C842.647 226.5 790.093 222.156 743.642 219.456C744.079 219.384 744.517 219.313 744.956 219.241C745.562 219.142 746.169 219.043 746.779 218.945C794.59 220.028 849.477 222.595 903.945 227.154C1001.37 235.309 1097.37 249.83 1149.17 273.593L1149.83 272.72C1097.88 248.889 1001.73 234.361 904.306 226.207C851.669 221.801 798.64 219.255 751.975 218.109L752.822 217.975C800.521 217.465 855.604 218.182 910.914 220.87C1010.46 225.708 1110.66 236.924 1169.91 258.819L1170.26 257.881C1110.85 235.927 1010.5 224.708 910.963 219.871C860.117 217.4 809.463 216.594 764.554 216.875C809.93 214.995 861.837 214.029 914.514 214.798C1015.08 216.265 1118.39 224.054 1184.43 243.838L1184.5 242.94C1118.27 223.1 1014.82 215.314 914.255 213.847C865.931 213.142 818.255 213.896 775.667 215.476C817.958 212.41 865.807 210.002 914.811 209.066C1015.31 207.147 1120.57 211.424 1192.67 228.878L1192.57 228.088C1120.24 210.579 1014.81 206.311 914.318 208.229C868.171 209.11 823.045 211.297 782.616 214.109C821.967 209.943 866.229 206.241 911.939 203.809C1011.26 198.525 1117.32 199.244 1194.69 214.177L1194.52 213.506C1116.87 198.519 1010.62 197.816 911.298 203.1C867.249 205.444 824.544 208.966 786.276 212.947C822.7 207.772 863.552 202.906 906.086 199.141C1003.14 190.551 1108.83 187.705 1190.62 199.954L1190.46 199.382C1108.34 187.083 1002.42 189.955 905.359 198.546C855.825 202.931 808.568 208.808 767.917 214.929C765.671 215.181 763.443 215.433 761.234 215.687C757.788 215.956 754.385 216.23 751.027 216.506C746.341 216.725 741.735 216.953 737.217 217.189C731.478 217.285 725.867 217.4 720.397 217.53C714.001 217.454 707.778 217.406 701.75 217.385C694.933 217.111 688.336 216.878 681.992 216.686C674.777 216.19 667.847 215.755 661.244 215.382C653.72 214.649 646.56 214.006 639.826 213.455C633.458 212.65 627.406 211.936 621.721 211.314C620.541 211.186 619.362 211.059 618.182 210.934C616.17 210.622 614.198 210.322 612.267 210.036C607.006 209.256 601.729 208.522 596.437 207.83C589.211 206.5 581.922 205.262 574.578 204.104C567.44 202.568 560.208 201.122 552.897 199.755C545.956 198.021 538.895 196.374 531.734 194.799C525.067 192.873 518.258 191.026 511.333 189.244C505.048 187.141 498.607 185.109 492.044 183.133C486.224 180.868 480.244 178.662 474.14 176.504C469.756 174.499 465.263 172.529 460.686 170.586C459.752 170.19 458.814 169.795 457.873 169.4C456.602 168.707 455.32 168.017 454.027 167.329C450.579 165.494 447.056 163.677 443.476 161.874C432.174 154.349 419.779 147.035 407.426 139.745C403.518 137.439 399.615 135.136 395.751 132.829C378.346 122.436 361.752 111.973 349.164 100.868C336.569 89.7566 328.061 78.0695 326.691 65.2463C325.598 55.0207 329.625 46.1506 336.965 38.4993C344.315 30.8382 354.969 24.4233 367.052 19.152C391.215 8.61079 420.954 2.70302 440.972 0.496911L440.862 -0.49707ZM449.123 165.719C449.215 165.783 449.307 165.848 449.399 165.912C449.543 165.97 449.687 166.028 449.831 166.087C449.595 165.964 449.359 165.842 449.123 165.719ZM451.965 167.728C453.035 168.496 454.092 169.266 455.134 170.039C456.925 170.627 458.708 171.218 460.483 171.812C459.104 171.044 457.71 170.28 456.302 169.518C454.864 168.919 453.418 168.323 451.965 167.728ZM456.654 171.177C458.015 172.206 459.349 173.24 460.654 174.28C463.255 174.973 465.846 175.671 468.424 176.376C466.744 175.377 465.036 174.385 463.302 173.398C461.098 172.653 458.882 171.913 456.654 171.177ZM461.677 175.101C463.131 176.278 464.548 177.464 465.921 178.657C469.132 179.345 472.331 180.04 475.516 180.743C473.754 179.617 471.952 178.499 470.115 177.389C467.317 176.62 464.503 175.857 461.677 175.101ZM466.67 179.312C468.13 180.599 469.54 181.895 470.896 183.202C474.642 183.834 478.377 184.474 482.099 185.125C480.344 183.906 478.54 182.697 476.691 181.499C473.366 180.761 470.025 180.033 466.67 179.312ZM471.475 183.765C472.887 185.146 474.236 186.538 475.519 187.943C479.773 188.485 484.017 189.038 488.25 189.603C486.554 188.305 484.799 187.021 482.99 185.748C479.167 185.076 475.327 184.416 471.475 183.765ZM475.985 188.458C477.31 189.931 478.56 191.418 479.729 192.92C484.487 193.345 489.239 193.783 493.981 194.236C492.377 192.861 490.705 191.502 488.969 190.157C484.654 189.578 480.325 189.012 475.985 188.458ZM480.112 193.417C481.313 194.988 482.426 196.576 483.443 198.183C488.722 198.463 493.997 198.758 499.267 199.071C497.784 197.617 496.223 196.18 494.587 194.759C489.772 194.296 484.946 193.85 480.112 193.417ZM483.758 198.686C483.771 198.705 483.783 198.725 483.795 198.745C484.773 200.329 485.703 202.015 486.575 203.796C492.402 203.9 498.232 204.022 504.063 204.164C503.062 203.011 502.05 201.906 501.032 200.85C500.626 200.429 500.213 200.01 499.794 199.592C494.454 199.272 489.108 198.971 483.758 198.686ZM486.833 204.329C487.672 206.083 488.455 207.925 489.175 209.847C495.583 209.738 501.999 209.647 508.424 209.581C507.152 207.879 505.852 206.252 504.531 204.708C498.631 204.561 492.731 204.436 486.833 204.329ZM489.393 210.437C490.094 212.359 490.732 214.36 491.299 216.432C498.334 216.061 505.386 215.71 512.459 215.388C511.294 213.584 510.093 211.843 508.864 210.173C502.365 210.238 495.875 210.328 489.393 210.437ZM491.48 217.106C492.04 219.227 492.525 221.419 492.928 223.674C500.661 222.979 508.419 222.306 516.213 221.665C515.146 219.736 514.035 217.865 512.886 216.056C505.731 216.379 498.598 216.732 491.48 217.106ZM493.065 224.462C493.465 226.829 493.774 229.264 493.982 231.756C502.51 230.651 511.074 229.567 519.696 228.521C518.728 226.438 517.705 224.407 516.634 222.433C508.745 223.079 500.892 223.76 493.065 224.462ZM494.054 232.672C494.251 235.373 494.331 238.141 494.281 240.963C503.758 239.324 513.277 237.702 522.882 236.124C522.023 233.831 521.092 231.587 520.099 229.398C511.366 230.456 502.692 231.553 494.054 232.672ZM494.258 241.982C494.166 245.172 493.909 248.43 493.469 251.738C504.146 249.376 514.855 247.02 525.687 244.713C524.963 242.119 524.142 239.571 523.235 237.079C513.504 238.677 503.86 240.321 494.258 241.982ZM493.32 252.807C492.75 256.751 491.919 260.764 490.799 264.817C494.534 263.793 498.266 262.766 502 261.739L502.001 261.739L502.002 261.739L502.002 261.739L502.003 261.738C510.61 259.37 519.227 256.999 527.922 254.652C527.404 251.615 526.742 248.623 525.954 245.689C514.984 248.026 504.138 250.414 493.32 252.807ZM490.49 265.908C489.043 270.923 487.151 275.997 484.76 281.076C484.679 281.249 484.597 281.422 484.514 281.595C490.304 279.707 496.038 277.799 501.746 275.88C507.387 273.984 513.002 272.078 518.623 270.17L518.624 270.17L518.625 270.169C522.139 268.976 525.654 267.783 529.179 266.591C529.035 262.884 528.66 259.218 528.081 255.613C519.586 257.908 511.163 260.225 502.748 262.541C498.663 263.665 494.579 264.788 490.49 265.908ZM483.962 282.735C480.306 290.164 475.575 297.589 469.604 304.845C488.072 298.428 505.039 291.613 521.694 284.691C523.937 283.759 526.175 282.825 528.41 281.889L528.423 281.791C529.099 277.01 529.342 272.25 529.211 267.552C525.991 268.642 522.777 269.733 519.565 270.823L519.557 270.826L519.552 270.828L519.533 270.834C513.919 272.74 508.309 274.644 502.673 276.539C496.48 278.62 490.255 280.69 483.962 282.735ZM464.776 173.259C464.437 173.065 464.096 172.87 463.755 172.676C464.6 173.04 465.441 173.405 466.279 173.771C465.778 173.6 465.278 173.43 464.776 173.259ZM471.459 177.209C470.142 176.406 468.806 175.608 467.454 174.814C469.235 175.426 471.006 176.042 472.766 176.661C474.456 177.428 476.129 178.2 477.784 178.976C476.323 178.563 474.858 178.153 473.388 177.744C472.746 177.565 472.103 177.387 471.459 177.209ZM477.898 181.271C476.327 180.244 474.723 179.224 473.089 178.211L473.168 178.233C475.692 178.935 478.201 179.643 480.695 180.357C482.677 181.307 484.63 182.264 486.554 183.229C483.682 182.569 480.796 181.917 477.898 181.271ZM484.069 185.471C482.435 184.311 480.757 183.162 479.039 182.022C482.164 182.721 485.274 183.429 488.367 184.146C490.433 185.199 492.463 186.263 494.453 187.337C491.006 186.704 487.544 186.083 484.069 185.471ZM489.931 189.828C488.32 188.57 486.654 187.325 484.939 186.092C488.562 186.733 492.17 187.384 495.762 188.047C497.825 189.175 499.844 190.315 501.816 191.468C497.866 190.909 493.904 190.363 489.931 189.828ZM495.447 194.376C493.905 193.029 492.3 191.698 490.635 190.381C494.719 190.933 498.791 191.498 502.849 192.076C504.865 193.27 506.83 194.478 508.74 195.701C504.318 195.244 499.886 194.803 495.447 194.376ZM500.566 199.149C499.131 197.715 497.621 196.298 496.041 194.899C500.573 195.337 505.096 195.79 509.608 196.26C511.547 197.517 513.429 198.79 515.249 200.081C510.359 199.752 505.465 199.443 500.566 199.149ZM501.736 200.34C501.52 200.116 501.302 199.892 501.083 199.67C506.064 199.971 511.041 200.288 516.012 200.626C516.759 201.163 517.495 201.703 518.22 202.246C519.253 203.019 520.292 203.822 521.334 204.652C515.967 204.478 510.6 204.327 505.236 204.193C504.082 202.846 502.914 201.56 501.736 200.34ZM509.515 209.57C508.268 207.886 506.993 206.273 505.698 204.737C511.141 204.875 516.586 205.031 522.031 205.211C523.701 206.56 525.379 207.979 527.056 209.463C521.2 209.475 515.353 209.512 509.515 209.57ZM513.493 215.341C512.346 213.552 511.162 211.824 509.95 210.163C515.868 210.107 521.794 210.072 527.729 210.063C529.337 211.504 530.942 213.004 532.538 214.56C526.171 214.793 519.823 215.056 513.493 215.341ZM517.208 221.583C516.153 219.669 515.054 217.809 513.919 216.01C520.333 215.722 526.765 215.459 533.218 215.226C534.775 216.762 536.322 218.351 537.852 219.988C530.937 220.488 524.059 221.023 517.208 221.583ZM520.665 228.403C519.705 226.334 518.69 224.315 517.628 222.352C524.572 221.786 531.544 221.247 538.553 220.743C540.07 222.387 541.568 224.077 543.04 225.811C535.53 226.64 528.076 227.507 520.665 228.403ZM523.836 235.967C522.981 233.689 522.055 231.458 521.067 229.281C528.582 228.374 536.14 227.496 543.756 226.66C545.246 228.439 546.709 230.263 548.137 232.126C539.959 233.365 531.867 234.651 523.836 235.967ZM526.64 244.51C525.915 241.933 525.095 239.4 524.19 236.922C532.332 235.589 540.535 234.287 548.827 233.033C550.311 234.999 551.755 237.008 553.152 239.056C544.202 240.827 535.38 242.652 526.64 244.51ZM528.893 254.39C528.366 251.374 527.699 248.401 526.909 245.485C535.762 243.603 544.697 241.753 553.764 239.96C555.257 242.184 556.693 244.453 558.06 246.76C548.177 249.25 538.485 251.805 528.893 254.39ZM530.201 266.246C530.035 262.567 529.644 258.928 529.056 255.35C538.763 252.731 548.568 250.143 558.567 247.622C560.072 250.203 561.49 252.831 562.808 255.497C551.717 259.022 540.915 262.626 530.201 266.246ZM529.564 281.406C530.194 276.637 530.4 271.89 530.239 267.205C541.079 263.539 552 259.891 563.212 256.322C564.714 259.419 566.078 262.567 567.281 265.752C556.865 269.946 546.735 274.199 536.621 278.445L536.591 278.458C534.249 279.441 531.908 280.424 529.564 281.406ZM480.114 179.29C480.718 179.578 481.319 179.866 481.918 180.155C482.758 180.397 483.596 180.639 484.432 180.882C483.002 180.349 481.562 179.818 480.114 179.29ZM484.708 181.516C486.306 182.304 487.885 183.098 489.444 183.898C491.841 184.455 494.229 185.019 496.605 185.588C494.747 184.842 492.871 184.102 490.977 183.369C488.9 182.746 486.81 182.129 484.708 181.516ZM491.205 184.808C493.069 185.78 494.903 186.761 496.705 187.752C499.84 188.332 502.962 188.921 506.071 189.521C503.961 188.613 501.823 187.716 499.658 186.827C496.856 186.145 494.038 185.473 491.205 184.808ZM497.984 188.46C499.92 189.539 501.817 190.629 503.671 191.732C507.339 192.257 510.996 192.793 514.639 193.342C512.478 192.342 510.279 191.354 508.047 190.378C504.709 189.727 501.354 189.088 497.984 188.46ZM504.686 192.339C506.613 193.501 508.494 194.675 510.324 195.865C514.446 196.295 518.559 196.738 522.663 197.198C520.523 196.128 518.341 195.073 516.12 194.031C512.323 193.453 508.511 192.89 504.686 192.339ZM511.178 196.424C513.053 197.658 514.873 198.908 516.634 200.174C521.176 200.483 525.712 200.808 530.243 201.151C528.167 200.021 526.043 198.907 523.874 197.808C519.653 197.33 515.421 196.869 511.178 196.424ZM517.388 200.72C517.881 201.079 518.37 201.44 518.854 201.803C520.087 202.726 521.328 203.69 522.573 204.692C527.519 204.855 532.466 205.037 537.414 205.241C536.425 204.649 535.443 204.073 534.469 203.514C533.426 202.915 532.369 202.32 531.299 201.73C526.668 201.374 522.03 201.038 517.388 200.72ZM523.263 205.252C524.904 206.591 526.551 207.995 528.196 209.461C533.538 209.454 538.888 209.467 544.246 209.505C542.269 208.22 540.311 206.991 538.381 205.822C533.341 205.61 528.302 205.421 523.263 205.252ZM528.865 210.062C530.452 211.493 532.035 212.98 533.608 214.521C539.344 214.313 545.097 214.13 550.869 213.975C548.963 212.641 547.066 211.355 545.184 210.118C539.736 210.075 534.297 210.057 528.865 210.062ZM534.285 215.188C535.826 216.715 537.356 218.291 538.868 219.914C545.003 219.473 551.167 219.059 557.364 218.677C555.514 217.292 553.665 215.947 551.824 214.646C545.959 214.799 540.114 214.981 534.285 215.188ZM539.569 220.671C541.072 222.304 542.557 223.983 544.016 225.704C550.559 224.986 557.146 224.298 563.785 223.647C561.981 222.203 560.17 220.796 558.36 219.426C552.064 219.809 545.802 220.226 539.569 220.671ZM544.731 226.553C546.211 228.321 547.663 230.133 549.081 231.983C556.048 230.932 563.077 229.914 570.185 228.94C568.406 227.418 566.614 225.929 564.816 224.476C558.07 225.132 551.378 225.827 544.731 226.553ZM549.771 232.891C551.247 234.844 552.683 236.841 554.072 238.874C561.482 237.413 568.981 235.989 576.596 234.617C574.815 232.983 573.013 231.38 571.198 229.811C563.98 230.796 556.843 231.826 549.771 232.891ZM554.685 239.778C556.171 241.988 557.601 244.242 558.965 246.532C566.845 244.553 574.849 242.615 583.024 240.738C581.217 238.949 579.379 237.191 577.519 235.467C569.798 236.856 562.196 238.298 554.685 239.778ZM559.474 247.394C560.974 249.957 562.39 252.565 563.707 255.211C572.099 252.551 580.658 249.936 589.472 247.393C587.629 245.407 585.742 243.451 583.82 241.529C575.546 243.429 567.447 245.39 559.474 247.394ZM564.113 256.035C565.614 259.107 566.981 262.228 568.192 265.386C577.174 261.779 586.374 258.218 595.964 254.745C594.086 252.506 592.143 250.298 590.147 248.125C581.241 250.697 572.593 253.343 564.113 256.035ZM500.583 186.551C499.781 186.22 498.975 185.891 498.166 185.564C500.056 186.151 501.933 186.744 503.797 187.341C502.728 187.076 501.657 186.813 500.583 186.551ZM508.84 190.059C507.092 189.292 505.323 188.533 503.536 187.78C505.886 188.363 508.225 188.953 510.55 189.55C512.575 190.225 514.583 190.908 516.574 191.599C514.006 191.078 511.428 190.565 508.84 190.059ZM516.795 193.668C514.818 192.739 512.81 191.821 510.773 190.914C513.815 191.515 516.843 192.126 519.855 192.749C522.132 193.556 524.385 194.374 526.613 195.203C523.352 194.68 520.079 194.169 516.795 193.668ZM524.444 197.399C522.417 196.372 520.352 195.358 518.252 194.357C521.786 194.901 525.307 195.458 528.814 196.03C531.153 196.915 533.462 197.813 535.74 198.724C531.984 198.268 528.218 197.826 524.444 197.399ZM531.771 201.268C529.771 200.166 527.726 199.08 525.64 198.009C529.586 198.461 533.522 198.928 537.446 199.411C539.766 200.353 542.053 201.31 544.304 202.281C540.132 201.926 535.954 201.589 531.771 201.268ZM535.096 203.138C534.343 202.705 533.583 202.275 532.816 201.847C537.133 202.183 541.444 202.536 545.749 202.909C547.098 203.5 548.435 204.096 549.758 204.698C550.637 205.098 551.524 205.508 552.419 205.926C547.867 205.696 543.314 205.487 538.762 205.296C537.529 204.552 536.306 203.833 535.096 203.138ZM545.471 209.514C543.535 208.249 541.616 207.036 539.722 205.879C544.388 206.079 549.055 206.298 553.722 206.54C555.836 207.542 557.991 208.594 560.178 209.694C555.268 209.612 550.366 209.552 545.471 209.514ZM552.006 213.945C550.129 212.627 548.26 211.354 546.406 210.129C551.407 210.172 556.415 210.238 561.432 210.328C563.502 211.38 565.6 212.474 567.72 213.607C562.465 213.694 557.227 213.808 552.006 213.945ZM558.432 218.611C556.605 217.24 554.779 215.908 552.959 214.617C558.285 214.482 563.628 214.371 568.989 214.289C571.019 215.384 573.068 216.515 575.13 217.68C569.535 217.962 563.97 218.273 558.432 218.611ZM564.799 223.548C563.012 222.117 561.22 220.721 559.427 219.362C565.073 219.022 570.746 218.71 576.451 218.429C578.446 219.567 580.453 220.735 582.467 221.933C576.532 222.439 570.645 222.979 564.799 223.548ZM571.152 228.808C569.388 227.298 567.612 225.821 565.829 224.378C571.785 223.802 577.784 223.258 583.832 222.749C585.812 223.937 587.798 225.153 589.785 226.396C583.508 227.163 577.301 227.969 571.152 228.808ZM577.524 234.45C575.755 232.828 573.967 231.237 572.165 229.679C578.421 228.83 584.739 228.015 591.128 227.24C593.125 228.5 595.123 229.786 597.117 231.098C590.491 232.173 583.966 233.293 577.524 234.45ZM583.916 240.533C582.121 238.758 580.295 237.013 578.447 235.301C584.987 234.129 591.614 232.996 598.344 231.908C600.389 233.264 602.428 234.646 604.459 236.051C597.478 237.498 590.639 238.995 583.916 240.533ZM590.334 247.145C588.501 245.174 586.624 243.232 584.713 241.324C591.521 239.767 598.448 238.252 605.521 236.79C607.628 238.26 609.724 239.756 611.803 241.275C604.458 243.177 597.315 245.139 590.334 247.145ZM596.799 254.443C594.929 252.222 592.996 250.032 591.011 247.876C598.066 245.846 605.284 243.863 612.71 241.94C614.883 243.539 617.037 245.164 619.165 246.811C611.439 249.293 604.008 251.843 596.799 254.443ZM517.742 191.432C518.667 191.754 519.589 192.079 520.506 192.405C521.687 192.649 522.865 192.895 524.04 193.143C521.953 192.566 519.854 191.995 517.742 191.432ZM523.706 193.553C525.605 194.243 527.487 194.941 529.351 195.646C532.028 196.082 534.698 196.527 537.358 196.98C535.326 196.37 533.279 195.767 531.218 195.171C528.726 194.623 526.222 194.084 523.706 193.553ZM531.517 196.473C533.662 197.299 535.782 198.136 537.876 198.985C541.218 199.397 544.552 199.821 547.877 200.258C545.597 199.521 543.295 198.795 540.974 198.08C537.835 197.532 534.682 196.997 531.517 196.473ZM539.563 199.674C541.765 200.58 543.937 201.5 546.076 202.433C549.87 202.761 553.659 203.104 557.443 203.463C555.115 202.654 552.761 201.858 550.384 201.076C546.787 200.593 543.18 200.126 539.563 199.674ZM547.508 203.062C548.482 203.493 549.45 203.927 550.41 204.364C551.576 204.895 552.755 205.442 553.948 206.004C558.107 206.219 562.266 206.45 566.425 206.701C565.635 206.405 564.851 206.115 564.073 205.83C562.543 205.269 561.002 204.714 559.449 204.166C555.475 203.78 551.494 203.413 547.508 203.062ZM555.243 206.619C557.309 207.607 559.411 208.64 561.543 209.718C566.017 209.797 570.498 209.896 574.986 210.017C572.673 209.092 570.401 208.206 568.177 207.362C563.866 207.094 559.555 206.847 555.243 206.619ZM562.793 210.353C564.827 211.392 566.888 212.471 568.968 213.587C573.727 213.512 578.5 213.459 583.289 213.43C581.04 212.481 578.821 211.564 576.637 210.681C572.015 210.549 567.401 210.44 562.793 210.353ZM570.236 214.27C572.237 215.354 574.257 216.472 576.289 217.622C581.31 217.373 586.356 217.149 591.429 216.952C589.242 215.983 587.077 215.042 584.938 214.13C580.02 214.151 575.12 214.199 570.236 214.27ZM577.609 218.373C579.58 219.5 581.563 220.656 583.552 221.841C588.817 221.396 594.12 220.978 599.464 220.59C597.335 219.605 595.221 218.644 593.126 217.707C587.926 217.901 582.754 218.124 577.609 218.373ZM584.918 222.658C586.877 223.836 588.842 225.041 590.809 226.271C596.3 225.605 601.845 224.967 607.451 224.364C605.358 223.355 603.275 222.366 601.205 221.399C595.733 221.788 590.306 222.208 584.918 222.658ZM592.152 227.116C594.131 228.366 596.111 229.641 598.086 230.941C603.784 230.021 609.557 229.133 615.414 228.284C613.32 227.232 611.231 226.2 609.151 225.188C603.424 225.796 597.76 226.441 592.152 227.116ZM599.314 231.752C601.342 233.097 603.365 234.467 605.379 235.861C611.256 234.649 617.235 233.474 623.331 232.34C621.204 231.228 619.078 230.135 616.958 229.062C610.992 229.921 605.114 230.819 599.314 231.752ZM606.442 236.6C608.533 238.059 610.614 239.542 612.677 241.049C618.697 239.497 624.854 237.985 631.171 236.52C629.003 235.34 626.831 234.179 624.66 233.037C618.472 234.183 612.405 235.373 606.442 236.6ZM613.586 241.714C615.743 243.3 617.881 244.911 619.995 246.545C626.108 244.591 632.406 242.68 638.924 240.821C636.722 239.574 634.513 238.345 632.3 237.135C625.905 238.616 619.675 240.145 613.586 241.714ZM541.379 197.674C540.466 197.393 539.551 197.114 538.632 196.837C540.688 197.308 542.734 197.787 544.771 198.272C543.642 198.071 542.511 197.871 541.379 197.674ZM550.68 200.63C548.778 200.005 546.86 199.388 544.929 198.779C547.5 199.239 550.063 199.708 552.615 200.186C554.636 200.692 556.646 201.205 558.646 201.726C555.997 201.351 553.341 200.986 550.68 200.63ZM559.635 203.673C557.497 202.921 555.338 202.181 553.159 201.451C556.357 201.889 559.548 202.339 562.728 202.803C565.016 203.415 567.289 204.038 569.546 204.672C566.247 204.326 562.943 203.993 559.635 203.673ZM564.758 205.513C563.719 205.132 562.675 204.754 561.625 204.379C565.243 204.736 568.856 205.109 572.463 205.499C574.118 205.974 575.765 206.455 577.403 206.941C577.723 207.037 578.045 207.133 578.368 207.23L578.76 207.347C578.984 207.414 579.209 207.482 579.435 207.55C575.706 207.288 571.977 207.042 568.248 206.812C567.071 206.368 565.907 205.934 564.758 205.513ZM576.572 210.06C574.339 209.163 572.144 208.3 569.991 207.476C573.94 207.726 577.888 207.995 581.837 208.283C584.09 208.975 586.393 209.7 588.741 210.456C584.679 210.305 580.622 210.174 576.572 210.06ZM584.712 213.423C582.519 212.493 580.353 211.594 578.22 210.727C582.449 210.852 586.685 210.998 590.927 211.164C593.15 211.89 595.412 212.642 597.708 213.42C593.363 213.4 589.031 213.401 584.712 213.423ZM592.729 216.902C590.584 215.949 588.46 215.023 586.359 214.124C590.838 214.109 595.331 214.116 599.839 214.146C602.016 214.893 604.221 215.661 606.453 216.452C601.855 216.578 597.281 216.729 592.729 216.902ZM600.665 220.504C598.57 219.532 596.49 218.584 594.426 217.659C599.129 217.488 603.856 217.341 608.608 217.22C610.731 217.98 612.876 218.759 615.04 219.557C610.213 219.846 605.423 220.163 600.665 220.504ZM608.57 224.244C606.505 223.247 604.45 222.27 602.407 221.314C607.308 220.971 612.245 220.653 617.221 220.364C619.308 221.141 621.412 221.935 623.531 222.746C618.494 223.217 613.508 223.717 608.57 224.244ZM616.462 228.132C614.392 227.092 612.328 226.071 610.271 225.069C615.342 224.536 620.462 224.03 625.637 223.555C627.726 224.361 629.829 225.183 631.942 226.02C626.713 226.693 621.555 227.399 616.462 228.132ZM624.315 232.157C622.21 231.057 620.106 229.975 618.007 228.912C623.213 228.167 628.486 227.453 633.835 226.772C635.959 227.62 638.093 228.483 640.234 229.36C634.835 230.259 629.532 231.193 624.315 232.157ZM632.097 236.306C629.948 235.137 627.796 233.987 625.645 232.855C630.953 231.878 636.351 230.932 641.847 230.023C644.01 230.915 646.179 231.82 648.353 232.74C642.812 233.893 637.398 235.083 632.097 236.306ZM639.793 240.574C637.61 239.339 635.42 238.121 633.226 236.921C638.599 235.684 644.089 234.48 649.709 233.315C651.892 234.244 654.079 235.186 656.267 236.142C650.615 237.581 645.13 239.06 639.793 240.574ZM560.51 201.703C561.306 201.913 562.102 202.123 562.895 202.335C563.849 202.473 564.803 202.613 565.755 202.755C564.012 202.399 562.263 202.049 560.51 201.703ZM566.922 203.424C568.794 203.938 570.657 204.458 572.508 204.987C575.059 205.261 577.608 205.544 580.154 205.835C578.29 205.417 576.42 205.005 574.544 204.599C572.01 204.198 569.469 203.806 566.922 203.424ZM575.401 205.821C576.31 206.086 577.216 206.352 578.119 206.621C579.314 206.976 580.524 207.341 581.75 207.715C584.944 207.946 588.138 208.19 591.332 208.446L590.916 208.345L590.45 208.233C590.215 208.176 589.98 208.119 589.746 208.063C588.125 207.674 586.498 207.29 584.866 206.911C581.716 206.534 578.561 206.171 575.401 205.821ZM584.141 208.453C586.279 209.117 588.46 209.81 590.679 210.529C594.265 210.668 597.856 210.822 601.452 210.992C599.188 210.404 596.967 209.839 594.793 209.298C591.242 209 587.692 208.718 584.141 208.453ZM592.863 211.242C595.009 211.947 597.19 212.676 599.401 213.429C603.274 213.453 607.159 213.493 611.056 213.553C608.808 212.938 606.594 212.343 604.417 211.768C600.56 211.574 596.709 211.399 592.863 211.242ZM601.532 214.159C603.652 214.889 605.798 215.64 607.968 216.411C612.071 216.303 616.194 216.214 620.337 216.146C618.145 215.521 615.978 214.911 613.841 214.319C609.725 214.245 605.622 214.192 601.532 214.159ZM610.125 217.182C612.203 217.928 614.302 218.693 616.418 219.475C620.711 219.221 625.033 218.99 629.386 218.78C627.264 218.151 625.162 217.536 623.083 216.935C618.741 216.995 614.423 217.078 610.125 217.182ZM618.601 220.285C620.651 221.05 622.718 221.831 624.797 222.628C629.248 222.216 633.74 221.827 638.275 221.463C636.204 220.827 634.147 220.203 632.109 219.592C627.573 219.799 623.071 220.03 618.601 220.285ZM626.905 223.439C628.963 224.234 631.034 225.045 633.114 225.87C637.693 225.285 642.327 224.726 647.019 224.192C644.954 223.537 642.901 222.894 640.863 222.262C636.164 222.628 631.513 223.021 626.905 223.439ZM635.008 226.624C637.105 227.461 639.21 228.313 641.323 229.179C645.995 228.407 650.739 227.661 655.561 226.943C653.467 226.258 651.384 225.585 649.312 224.922C644.483 225.462 639.717 226.03 635.008 226.624ZM642.938 229.843C645.075 230.725 647.219 231.621 649.368 232.53C654.093 231.553 658.911 230.604 663.83 229.684C661.708 228.971 659.595 228.268 657.492 227.576C652.561 228.303 647.712 229.059 642.938 229.843ZM650.725 233.106C652.884 234.024 655.047 234.957 657.212 235.902C661.947 234.704 666.799 233.534 671.779 232.394C669.658 231.661 667.542 230.938 665.433 230.225C660.429 231.155 655.529 232.116 650.725 233.106ZM584.459 206.303L584.1 206.221L583.499 206.083L583.17 206.008C584.324 206.202 585.476 206.398 586.626 206.597L586.29 206.556L585.587 206.472L585.204 206.426L584.764 206.373L584.459 206.303ZM590.486 207.721C590.134 207.636 589.782 207.552 589.429 207.468C591.855 207.769 594.278 208.079 596.698 208.398C598.171 208.671 599.642 208.948 601.109 209.229L601.555 209.314C599.216 209.105 596.877 208.903 594.539 208.708C593.169 208.37 591.818 208.04 590.486 207.721ZM603.975 211.114C601.944 210.582 599.947 210.067 597.985 209.571C601.025 209.835 604.064 210.111 607.103 210.401C609.017 210.784 610.967 211.181 612.95 211.592C609.955 211.421 606.963 211.262 603.975 211.114ZM613.175 213.587C611.067 213.007 608.988 212.444 606.941 211.898C610.354 212.077 613.771 212.272 617.194 212.482C619.201 212.908 621.24 213.348 623.308 213.801C619.921 213.715 616.543 213.644 613.175 213.587ZM622.182 216.118C620.085 215.516 618.012 214.93 615.964 214.359C619.651 214.432 623.348 214.522 627.058 214.63C629.06 215.076 631.087 215.535 633.138 216.005C629.469 216.026 625.818 216.064 622.182 216.118ZM631.03 218.702C628.978 218.092 626.945 217.495 624.933 216.911C628.834 216.863 632.753 216.834 636.692 216.825C638.646 217.28 640.621 217.745 642.614 218.22C638.728 218.362 634.867 218.523 631.03 218.702ZM639.761 221.345C637.745 220.725 635.743 220.115 633.757 219.518C637.824 219.339 641.919 219.18 646.042 219.042C647.961 219.505 649.896 219.977 651.846 220.458C647.783 220.734 643.755 221.03 639.761 221.345ZM648.376 224.039C646.356 223.397 644.348 222.766 642.353 222.146C646.542 221.826 650.768 221.526 655.034 221.249C656.961 221.73 658.901 222.219 660.855 222.716C656.648 223.136 652.489 223.577 648.376 224.039ZM656.808 226.758C654.753 226.085 652.707 225.423 650.673 224.771C654.194 224.383 657.749 224.009 661.339 223.651C662.095 223.576 662.858 223.501 663.63 223.426C665.599 223.932 667.579 224.446 669.571 224.968C668.113 225.162 666.685 225.355 665.286 225.548C662.433 225.941 659.607 226.345 656.808 226.758ZM664.981 229.47C662.893 228.767 660.812 228.075 658.741 227.392C661.112 227.046 663.502 226.707 665.912 226.374C667.842 226.108 669.829 225.841 671.872 225.573C673.874 226.102 675.887 226.638 677.909 227.183C674.899 227.691 672.01 228.194 669.25 228.69C667.818 228.948 666.395 229.208 664.981 229.47ZM672.843 232.152C670.751 231.429 668.665 230.715 666.586 230.012C667.734 229.8 668.888 229.59 670.047 229.381C673.138 228.826 676.388 228.262 679.792 227.691C681.789 228.232 683.794 228.78 685.808 229.336C681.234 230.289 676.939 231.223 672.943 232.129L672.843 232.152ZM606.333 209.718L606.666 209.784L607.048 209.82L606.333 209.718ZM612.197 210.9C613.625 211.193 615.071 211.494 616.534 211.802C618.544 211.923 620.555 212.05 622.568 212.182C621.306 211.979 620.058 211.781 618.825 211.587C616.616 211.351 614.406 211.122 612.197 210.9ZM620.791 212.709C622.551 213.088 624.333 213.477 626.137 213.876C628.839 213.951 631.546 214.036 634.26 214.131C632.604 213.846 630.967 213.568 629.35 213.297C626.494 213.089 623.641 212.893 620.791 212.709ZM629.901 214.716C631.749 215.132 633.618 215.558 635.506 215.994C638.578 215.982 641.662 215.983 644.759 215.997L644.817 215.997C643.064 215.679 641.329 215.369 639.612 215.065C638.836 215.034 638.068 215.004 637.306 214.975C634.832 214.88 632.364 214.794 629.901 214.716ZM639.073 216.823C640.92 217.255 642.785 217.696 644.666 218.147C646.709 218.076 648.76 218.01 650.817 217.949C652.115 217.911 653.434 217.875 654.774 217.84C653.028 217.51 651.297 217.186 649.581 216.869C647.78 216.853 646.014 216.841 644.285 216.833C642.543 216.826 640.806 216.822 639.073 216.823ZM648.104 218.975C649.942 219.421 651.796 219.875 653.662 220.337C654.5 220.281 655.339 220.227 656.18 220.173C658.812 220.005 661.536 219.842 664.349 219.684C662.613 219.343 660.89 219.009 659.18 218.68C656.217 218.745 653.347 218.818 650.574 218.9C650.262 218.909 649.949 218.918 649.637 218.928L649.294 218.938L648.769 218.954L648.104 218.975ZM656.858 221.132C658.722 221.599 660.598 222.073 662.486 222.555C666.019 222.208 669.723 221.865 673.588 221.525C671.821 221.167 670.064 220.815 668.32 220.468C664.331 220.68 660.507 220.902 656.858 221.132ZM665.268 223.268C667.185 223.762 669.112 224.263 671.051 224.772C674.668 224.297 678.459 223.819 682.415 223.341C680.586 222.959 678.767 222.583 676.959 222.212C672.89 222.56 668.989 222.912 665.268 223.268ZM673.355 225.379C675.313 225.897 677.281 226.423 679.258 226.956C682.912 226.344 686.74 225.724 690.732 225.1C688.862 224.699 687.001 224.304 685.15 223.914C681.045 224.403 677.11 224.892 673.355 225.379ZM681.143 227.465C683.1 227.996 685.067 228.534 687.04 229.08C690.684 228.325 694.5 227.558 698.479 226.781C696.622 226.373 694.772 225.97 692.931 225.573C688.829 226.21 684.896 226.841 681.143 227.465ZM638.397 214.283C637.362 214.102 636.334 213.923 635.314 213.747C637.19 213.894 639.102 214.049 641.048 214.211C641.726 214.298 642.406 214.386 643.091 214.474C641.499 214.406 639.934 214.342 638.397 214.283ZM648.069 216.016C646.635 215.753 645.213 215.495 643.802 215.242C646.352 215.354 648.969 215.478 651.649 215.612C652.797 215.769 653.952 215.927 655.116 216.089C652.709 216.057 650.36 216.033 648.069 216.016ZM657.479 217.774C655.93 217.479 654.392 217.188 652.865 216.903C655.781 216.938 658.782 216.983 661.865 217.04C663.162 217.225 664.468 217.414 665.783 217.606C662.938 217.654 660.169 217.71 657.479 217.774ZM666.672 219.555C665.072 219.24 663.483 218.929 661.904 218.623C665.041 218.561 668.277 218.508 671.606 218.465C672.982 218.671 674.366 218.88 675.759 219.091C672.641 219.24 669.611 219.395 666.672 219.555ZM675.626 221.348C673.959 221.009 672.302 220.675 670.655 220.345C673.924 220.177 677.299 220.016 680.773 219.861C682.245 220.089 683.726 220.321 685.215 220.556C681.922 220.817 678.724 221.081 675.626 221.348ZM684.225 223.123C682.475 222.757 680.734 222.395 679.003 222.039C682.34 221.759 685.785 221.483 689.333 221.21C690.914 221.463 692.504 221.72 694.101 221.98C690.71 222.36 687.416 222.742 684.225 223.123ZM692.355 224.847C690.55 224.459 688.753 224.076 686.965 223.699C690.322 223.303 693.789 222.908 697.36 222.514C699.01 222.785 700.667 223.06 702.332 223.339C698.906 223.844 695.579 224.347 692.355 224.847ZM699.941 226.496C698.138 226.1 696.343 225.708 694.556 225.322C697.897 224.808 701.347 224.29 704.9 223.771C706.544 224.049 708.196 224.331 709.855 224.615C706.451 225.247 703.145 225.875 699.941 226.496ZM659.278 216.06L659.996 216.162C660.88 216.176 661.77 216.192 662.667 216.209C661.354 216.133 660.054 216.059 658.766 215.988L659.278 216.06ZM666.796 217.138C667.717 217.273 668.642 217.409 669.571 217.546C671.416 217.519 673.29 217.495 675.193 217.475C674.637 217.415 674.083 217.357 673.53 217.298C671.248 217.24 669.003 217.186 666.796 217.138ZM675.422 218.42C676.566 218.593 677.715 218.769 678.871 218.946C681.157 218.841 683.488 218.74 685.861 218.642C685.004 218.546 684.15 218.45 683.3 218.356C680.623 218.372 677.996 218.393 675.422 218.42ZM683.9 219.725C685.213 219.93 686.532 220.138 687.857 220.349C690.396 220.152 692.988 219.957 695.632 219.765C694.543 219.637 693.459 219.51 692.379 219.385C689.495 219.494 686.667 219.607 683.9 219.725ZM691.985 221.009C693.447 221.244 694.916 221.483 696.393 221.725C699.069 221.428 701.804 221.133 704.595 220.838C703.308 220.681 702.027 220.526 700.752 220.373C697.767 220.582 694.844 220.794 691.985 221.009ZM699.657 222.262C701.213 222.519 702.776 222.78 704.346 223.044C707.077 222.646 709.868 222.246 712.718 221.846C711.312 221.669 709.912 221.494 708.518 221.321C705.501 221.633 702.546 221.947 699.657 222.262ZM706.916 223.478C708.484 223.744 710.059 224.013 711.639 224.285C714.36 223.784 717.141 223.28 719.98 222.774C718.559 222.59 717.143 222.408 715.733 222.228C712.73 222.645 709.791 223.062 706.916 223.478ZM689.591 218.386L689.105 218.331C690.726 218.327 692.364 218.324 694.018 218.324C692.762 218.37 691.516 218.417 690.28 218.465L689.591 218.386ZM697.754 219.334L696.821 219.224C698.891 219.151 700.989 219.08 703.114 219.012C703.618 219.053 704.124 219.093 704.631 219.134C702.806 219.257 701.003 219.382 699.221 219.508C698.731 219.449 698.242 219.391 697.754 219.334ZM707.61 220.523C706.521 220.389 705.435 220.256 704.353 220.125C706.602 219.972 708.884 219.821 711.197 219.672L711.762 219.719L712.533 219.783L713.129 219.834L713.81 219.891C711.716 220.101 709.649 220.312 707.61 220.523ZM715.304 221.485C714.045 221.325 712.79 221.167 711.54 221.011C713.866 220.774 716.227 220.538 718.623 220.304C719.701 220.397 720.782 220.492 721.868 220.587C719.648 220.887 717.46 221.186 715.304 221.485ZM722.227 222.375C720.921 222.205 719.619 222.037 718.323 221.87C720.662 221.549 723.039 221.228 725.45 220.906C725.878 220.945 726.307 220.983 726.736 221.022C727.447 221.086 728.159 221.151 728.873 221.216C726.625 221.603 724.41 221.99 722.227 222.375ZM716.37 219.345C716.897 219.39 717.424 219.435 717.952 219.481C718.779 219.4 719.61 219.319 720.445 219.238C720.81 219.203 721.177 219.167 721.544 219.132L720.616 219.087C719.19 219.172 717.775 219.258 716.37 219.345ZM722.775 219.901C723.618 219.976 724.463 220.051 725.31 220.127C726.762 219.934 728.227 219.741 729.704 219.548C729.016 219.512 728.331 219.476 727.646 219.441C726.008 219.594 724.384 219.747 722.775 219.901ZM730.839 220.628L731.793 220.716C733.353 220.45 734.929 220.183 736.518 219.917C735.693 219.871 734.871 219.826 734.05 219.781C732.316 220.004 730.599 220.227 728.898 220.45L729.659 220.52L730.839 220.628ZM734.431 218.938L733.606 218.893C734.262 218.834 734.92 218.774 735.581 218.715L736.101 218.725L735.318 218.824L734.431 218.938ZM740.404 219.27C739.864 219.239 739.324 219.209 738.785 219.178C739.704 219.063 740.627 218.947 741.554 218.831L742.276 218.846L742.898 218.86L741.865 219.029L741.336 219.116L740.404 219.27Z" fill="url(#paint0_linear_4696_2895)"/>
</g>
<defs>
<linearGradient id="paint0_linear_4696_2895" x1="612.032" y1="-0.49707" x2="612.032" y2="372.325" gradientUnits="userSpaceOnUse">
<stop stop-color="#0A0A0A" stop-opacity="0"/>
<stop offset="0.0001" stop-color="#0A0A0A" stop-opacity="0"/>
<stop offset="0.515625" stop-color="white" stop-opacity="0.65"/>
<stop offset="1" stop-color="#0A0A0A" stop-opacity="0"/>
</linearGradient>
<clipPath id="clip0_4696_2895">
<rect width="1207" height="376" fill="white"/>
</clipPath>
</defs>
</svg>
