<svg width="56" height="57" viewBox="0 0 56 57" fill="none" xmlns="http://www.w3.org/2000/svg">
<rect y="0.473633" width="56" height="56" rx="28" fill="#1D1D1F"/>
<path fill-rule="evenodd" clip-rule="evenodd" d="M25.1731 14.0187C23.5095 14.1846 21.8132 14.5417 20.3262 15.2577C19.1026 15.8468 17.9223 16.7251 17.0559 18.0277C16.1766 19.3496 15.75 20.915 15.75 22.6403C15.75 24.3656 16.1766 25.931 17.0559 27.2529C17.9223 28.5555 19.1026 29.4338 20.3262 30.0229C21.8132 30.7389 23.5095 31.096 25.1731 31.2619V36.7885C23.2375 36.2148 21.5204 35.1636 20.5759 34.189L16.578 38.3138C18.461 40.2566 21.6571 42.0954 25.1731 42.7778V45.9736H30.8269V42.9286C32.4905 42.7627 34.1868 42.4056 35.6738 41.6896C36.8974 41.1005 38.0777 40.2222 38.9441 38.9196C39.8234 37.5976 40.25 36.0323 40.25 34.307C40.25 32.5937 39.8353 31.0332 38.9678 29.7103C38.111 28.4038 36.9387 27.5204 35.7153 26.9275C34.2224 26.2039 32.5125 25.8464 30.8269 25.682V20.1587C32.7625 20.7325 34.4796 21.7837 35.4241 22.7583L39.422 18.6335C37.539 16.6906 34.3429 14.8518 30.8269 14.1695V10.9736H25.1731V14.0187ZM30.8269 31.5506V37.0584C31.814 36.9259 32.6442 36.711 33.2829 36.4035C33.8262 36.1419 34.1182 35.8657 34.2824 35.6188C34.4338 35.3913 34.5962 35.0122 34.5962 34.307C34.5962 33.5897 34.4336 33.2057 34.285 32.9791C34.1257 32.7362 33.8432 32.465 33.3114 32.2073C32.6738 31.8983 31.8364 31.6824 30.8269 31.5506ZM25.1731 25.3917V19.8889C24.186 20.0213 23.3558 20.2362 22.7171 20.5438C22.1738 20.8053 21.8818 21.0815 21.7176 21.3284C21.5662 21.556 21.4038 21.9351 21.4038 22.6403C21.4038 23.3455 21.5662 23.7246 21.7176 23.9522C21.8818 24.1991 22.1738 24.4753 22.7171 24.7368C23.3558 25.0444 24.186 25.2593 25.1731 25.3917Z" fill="#F5F5FF" stroke="#1D1D1F"/>
</svg>
